<?xml version="1.0" encoding="utf-8"?>
<!-- Generator: Adobe Illustrator 16.0.0, SVG Export Plug-In . SVG Version: 6.00 Build 0)  -->
<!DOCTYPE svg PUBLIC "-//W3C//DTD SVG 1.1//EN" "http://www.w3.org/Graphics/SVG/1.1/DTD/svg11.dtd">
<svg version="1.1" id="Layer_1" xmlns="http://www.w3.org/2000/svg" xmlns:xlink="http://www.w3.org/1999/xlink" x="0px" y="0px"
	 width="293.5px" height="92px" viewBox="0 0 293.5 92" enable-background="new 0 0 293.5 92" xml:space="preserve">
<g>
	<g>
		<path d="M43.459,33.785c2.011,1.84,3.017,4.399,3.017,7.677c0,3.278-0.98,5.873-2.941,7.783c-1.96,1.91-4.952,2.865-8.974,2.865
			h-7.209V31.025h7.451C38.562,31.025,41.449,31.945,43.459,33.785z M40.006,46.319c1.156-1.086,1.734-2.664,1.734-4.736
			c0-2.07-0.578-3.664-1.734-4.781c-1.157-1.117-2.931-1.674-5.324-1.674h-2.624v12.82h2.986
			C37.196,47.947,38.849,47.405,40.006,46.319z"/>
		<path d="M52.359,31.025h4.706V52.11h-4.706V31.025z"/>
		<path d="M77.757,41.371h4.736v7.481c-2.091,2.332-4.988,3.498-8.688,3.498c-3.097,0-5.696-1.024-7.797-3.076
			c-2.102-2.051-3.152-4.641-3.152-7.768s1.071-5.735,3.212-7.828c2.142-2.09,4.726-3.137,7.752-3.137
			c3.027,0,5.656,0.996,7.888,2.986l-2.443,3.529c-0.946-0.824-1.815-1.393-2.609-1.704c-0.794-0.312-1.654-0.468-2.579-0.468
			c-1.79,0-3.298,0.608-4.524,1.826c-1.227,1.217-1.84,2.819-1.84,4.812c0,1.989,0.588,3.585,1.765,4.78
			c1.176,1.197,2.579,1.795,4.208,1.795s2.986-0.312,4.072-0.935L77.757,41.371L77.757,41.371z"/>
		<path d="M88.495,31.025h4.706V52.11h-4.706V31.025z"/>
		<path d="M109.127,35.097V52.11h-4.706V35.097h-5.973v-4.071H115.1v4.071H109.127z"/>
		<path d="M133.833,52.11l-1.961-4.555h-8.838l-1.961,4.555h-5.007l9.11-21.085h4.555l9.11,21.085H133.833z M127.468,37.3
			l-2.654,6.125h5.278L127.468,37.3z"/>
		<path d="M143.094,52.11V31.025h4.706v16.894h8.988v4.191H143.094z"/>
		<path d="M187.917,33.785c2.011,1.84,3.018,4.399,3.018,7.677c0,3.278-0.98,5.873-2.941,7.783s-4.951,2.865-8.974,2.865h-7.21
			V31.025h7.451C183.021,31.025,185.907,31.945,187.917,33.785z M184.464,46.319c1.154-1.086,1.734-2.664,1.734-4.736
			c0-2.07-0.58-3.664-1.734-4.781c-1.156-1.117-2.934-1.674-5.324-1.674h-2.625v12.82h2.986
			C181.653,47.947,183.308,47.405,184.464,46.319z"/>
		<path d="M212.019,31.025v4.192h-10.497v4.344h9.441v4.012h-9.441v4.374h10.829v4.163h-15.535V31.025H212.019z"/>
		<path d="M228.036,47.947c2.312,0,4.203-0.915,5.67-2.745l3.017,3.107c-2.394,2.695-5.212,4.041-8.46,4.041
			s-5.923-1.023-8.023-3.075c-2.102-2.05-3.15-4.64-3.15-7.767s1.068-5.736,3.212-7.828s4.761-3.137,7.856-3.137
			c3.459,0,6.354,1.316,8.688,3.951l-2.925,3.318c-1.489-1.85-3.34-2.775-5.553-2.775c-1.771,0-3.283,0.579-4.539,1.735
			c-1.258,1.155-1.887,2.714-1.887,4.675s0.594,3.535,1.78,4.721C224.909,47.355,226.348,47.947,228.036,47.947z"/>
		<path d="M242.243,31.025h4.707v8.657l7.963-8.657h5.822l-8.388,9.321c0.726,1.004,2.062,2.879,4.013,5.625
			c1.949,2.744,3.407,4.791,4.375,6.139h-5.49l-6.186-8.325l-2.109,2.353v5.973h-4.707V31.025z"/>
	</g>
	<polygon points="167.628,59.419 167.628,63.796 258.483,63.796 266.147,71.458 266.147,63.796 266.147,59.419 	"/>
</g>
</svg>
