<?xml version="1.0" encoding="UTF-8" standalone="no"?>
<!-- Created with Inkscape (http://www.inkscape.org/) -->

<svg
   xmlns:dc="http://purl.org/dc/elements/1.1/"
   xmlns:cc="http://creativecommons.org/ns#"
   xmlns:rdf="http://www.w3.org/1999/02/22-rdf-syntax-ns#"
   xmlns:svg="http://www.w3.org/2000/svg"
   xmlns="http://www.w3.org/2000/svg"
   xmlns:sodipodi="http://sodipodi.sourceforge.net/DTD/sodipodi-0.dtd"
   xmlns:inkscape="http://www.inkscape.org/namespaces/inkscape"
   version="1.1"
   width="157.5"
   height="70"
   viewBox="0 0 157.5 70"
   id="Layer_1"
   xml:space="preserve"
   inkscape:version="0.48.2 r9819"
   sodipodi:docname="point_97_logo.svg"><sodipodi:namedview
   pagecolor="#ffffff"
   bordercolor="#666666"
   borderopacity="1"
   objecttolerance="10"
   gridtolerance="10"
   guidetolerance="10"
   inkscape:pageopacity="0"
   inkscape:pageshadow="2"
   inkscape:window-width="901"
   inkscape:window-height="677"
   id="namedview3117"
   showgrid="false"
   inkscape:zoom="2.2349206"
   inkscape:cx="78.75"
   inkscape:cy="52.897727"
   inkscape:window-x="1828"
   inkscape:window-y="175"
   inkscape:window-maximized="0"
   inkscape:current-layer="Layer_1" /><metadata
   id="metadata25"><rdf:RDF><cc:Work
       rdf:about=""><dc:format>image/svg+xml</dc:format><dc:type
         rdf:resource="http://purl.org/dc/dcmitype/StillImage" /><dc:title></dc:title></cc:Work></rdf:RDF></metadata><defs
   id="defs23" />
<path
   d="M 126.495,64.771 H 39.27883 V 5.457 H 126.495 V 64.771 z M 40.719228,62.334 H 125.05519 V 7.895 H 40.719228 v 54.439 z"
   id="path3"
   style="fill:#000000;fill-opacity:1"
   inkscape:connector-curvature="0" />
<g
   id="g5"
   style="fill:#000000;fill-opacity:1"
   transform="translate(-26,0)">
	<path
   d="M 89.567,22.102 H 82.664 V 48.024 H 86.48 V 37.557 h 2.903 c 2.044,0 3.906,-0.691 5.244,-1.948 1.494,-1.401 2.284,-3.444 2.284,-5.907 0,-2.474 -0.792,-4.488 -2.291,-5.824 -1.285,-1.146 -3.079,-1.776 -5.053,-1.776 z M 89.42,33.854 h -2.94 v -8.011 h 2.83 c 2.336,0 3.675,1.447 3.675,3.969 0,2.531 -1.332,4.042 -3.565,4.042 z"
   id="path7"
   style="fill:#000000;fill-opacity:1"
   inkscape:connector-curvature="0" />
	
	
	
	
	<path
   d="m 112.341,21.697 c -4.617,0 -7.602,3.315 -7.602,8.445 0,4.734 2.733,8.038 6.646,8.038 1.616,0 2.887,-0.469 3.873,-1.431 -0.837,4.508 -3.736,7.593 -7.633,8.084 l -0.095,0.012 v 3.593 l 0.118,-0.011 c 7.438,-0.689 11.704,-6.927 11.704,-17.11 0.002,-6.203 -2.49,-9.62 -7.011,-9.62 z m -0.221,12.855 c -2.267,0 -3.675,-1.718 -3.675,-4.483 0,-2.968 1.373,-4.74 3.675,-4.74 2.176,0 3.527,1.732 3.527,4.52 0,2.989 -1.285,4.703 -3.527,4.703 z"
   id="path17"
   style="fill:#000000;fill-opacity:1"
   inkscape:connector-curvature="0" />
	<path
   d="m 120.762,22.102 v 3.705 h 9.691 c -4.055,5.188 -5.945,12.219 -5.945,22.109 v 0.107 h 3.815 v -0.107 c 0,-7.236 0.747,-15.503 6.291,-21.963 l 0.026,-0.03 v -3.821 h -13.878 z"
   id="path19"
   style="fill:#000000;fill-opacity:1"
   inkscape:connector-curvature="0" />
</g>
</svg>